<svg width="50" height="50" viewBox="0 0 50 50" fill="none" xmlns="http://www.w3.org/2000/svg">
<path d="M49.9754 11.3666C49.9542 10.2939 49.8678 9.22351 49.7166 8.16133C49.5373 7.21774 49.2327 6.30234 48.8109 5.43945C47.8857 3.61087 46.4014 2.12501 44.5738 1.19783C43.716 0.777105 42.806 0.472647 41.8677 0.2925C40.7975 0.138325 39.7187 0.0502741 38.6377 0.0288498C38.179 0.0121998 37.5854 0.00397503 37.3115 0.00397503L12.6923 0C12.4194 0 11.8257 0.00825 11.3666 0.024575C10.2939 0.0456539 9.22349 0.132072 8.16133 0.28335C7.21774 0.462628 6.30235 0.767199 5.43945 1.18897C3.6109 2.11436 2.12501 3.59863 1.19765 5.42618C0.777059 6.28403 0.472615 7.19408 0.29235 8.13233C0.138305 9.20257 0.0502468 10.2813 0.0286752 11.3623C0.0123502 11.821 0.00397503 12.4146 0.00397503 12.6883L0 37.3077C0 37.5804 0.00825 38.1741 0.024575 38.6334C0.0456539 39.7061 0.132072 40.7765 0.28335 41.8387C0.462651 42.7823 0.76722 43.6976 1.18897 44.5606C2.1143 46.389 3.59853 47.8749 5.42603 48.8022C6.28394 49.2228 7.19404 49.5272 8.13233 49.7075C9.20255 49.8617 10.2813 49.9498 11.3623 49.9712C11.8209 49.9877 12.4146 49.996 12.6883 49.996L37.3077 50C37.5804 50 38.1743 49.9917 38.6333 49.9754C39.706 49.9543 40.7764 49.8679 41.8387 49.7166C42.7822 49.5373 43.6975 49.2327 44.5604 48.811C46.3889 47.8857 47.8748 46.4014 48.8022 44.5738C49.2228 43.716 49.5273 42.8059 49.7075 41.8677C49.8617 40.7974 49.9498 39.7187 49.9713 38.6377C49.9878 38.179 49.996 37.5854 49.996 37.3117L50 12.6923C50 12.4196 49.9917 11.8257 49.9754 11.3666ZM25.5418 42.3912H25.5345C22.5589 42.391 19.6306 41.6455 17.0172 40.2226L7.56897 42.7001L10.0975 33.4673C8.13857 30.0683 7.35573 26.1179 7.87037 22.2288C8.38501 18.3396 10.1684 14.7288 12.944 11.9563C15.7195 9.18383 19.3323 7.4045 23.222 6.89419C27.1118 6.38388 31.0612 7.17112 34.458 9.13384C37.8548 11.0966 40.5092 14.1251 42.0097 17.7499C43.5101 21.3747 43.7727 25.3933 42.7568 29.1826C41.7409 32.9719 39.5033 36.3201 36.3908 38.7082C33.2783 41.0964 29.4649 42.3909 25.5418 42.3912Z" fill="#FFF7F7"/>
<path d="M25.5474 9.75293C22.9003 9.75231 20.3013 10.4609 18.0208 11.805C15.7403 13.1491 13.8616 15.0796 12.5799 17.3958C11.2983 19.7119 10.6606 22.3292 10.7331 24.9753C10.8056 27.6214 11.5858 30.1998 12.9924 32.4423L13.3447 33.0026L11.8482 38.4673L17.4547 36.9969L17.9957 37.3179C20.2784 38.6696 22.8826 39.3825 25.5355 39.3822H25.5414C29.4672 39.3779 33.2308 37.8156 36.0055 35.0384C38.7803 32.2613 40.3392 28.4963 40.34 24.5705C40.3408 20.6447 38.7834 16.8791 36.0098 14.1009C33.2362 11.3226 29.4732 9.75876 25.5474 9.75293ZM34.2609 30.9279C33.933 31.4691 33.4967 31.9365 32.9793 32.3008C32.462 32.6651 31.8749 32.9184 31.2549 33.0448C30.319 33.205 29.3585 33.1446 28.4499 32.8686C27.5878 32.6007 26.7404 32.2876 25.9112 31.9306C22.8355 30.3871 20.2139 28.0706 18.3037 25.2083C17.2622 23.8829 16.6302 22.2823 16.4853 20.6029C16.4729 19.9096 16.6051 19.2212 16.8735 18.5818C17.1418 17.9423 17.5405 17.3658 18.044 16.8889C18.1928 16.7192 18.3751 16.5821 18.5795 16.4862C18.7838 16.3903 19.0058 16.3378 19.2315 16.3318C19.5282 16.3318 19.8255 16.3346 20.0849 16.3476C20.3583 16.3611 20.7254 16.2437 21.0869 17.1119C21.458 18.0031 22.3487 20.1944 22.4599 20.4172C22.5305 20.5339 22.5708 20.6663 22.5773 20.8025C22.5838 20.9387 22.5563 21.0744 22.4971 21.1972C22.3849 21.4648 22.2349 21.715 22.0517 21.94C21.8291 22.2 21.5841 22.5205 21.3839 22.72C21.1608 22.9421 20.9287 23.183 21.1884 23.6285C21.8573 24.7734 22.6922 25.8127 23.6659 26.7127C24.7221 27.6518 25.934 28.3996 27.2471 28.9224C27.6924 29.1454 27.9521 29.1081 28.2119 28.811C28.4717 28.5139 29.3252 27.511 29.6219 27.0654C29.9187 26.6198 30.2157 26.694 30.6238 26.8427C31.032 26.9913 33.2216 28.0682 33.667 28.291C34.1124 28.5138 34.4092 28.6253 34.5205 28.811C34.6425 29.5269 34.5522 30.2627 34.2609 30.9279Z" fill="#FFF7F7"/>
</svg>
