<svg width="50" height="50" viewBox="0 0 50 50" fill="none" xmlns="http://www.w3.org/2000/svg">
<path d="M49.839 14.7577C49.8084 12.6594 49.4197 10.5777 48.6756 8.61515C47.3734 5.26389 44.7218 2.61393 41.365 1.31667C39.4241 0.587649 37.3723 0.196807 35.2954 0.152456C32.6244 0.0332633 31.7775 0 24.9972 0C18.2169 0 17.3478 1.85872e-07 14.6962 0.152456C12.6222 0.196807 10.5703 0.587649 8.6295 1.31667C5.27266 2.61393 2.61828 5.26389 1.31886 8.61515C0.588627 10.5527 0.194358 12.6012 0.155486 14.6718C0.036095 17.3412 0 18.1866 0 24.9557C0 31.7247 -2.06869e-08 32.5895 0.155486 35.2395C0.197135 37.3129 0.588627 39.3586 1.31886 41.3017C2.62106 44.6502 5.27266 47.3002 8.63227 48.5974C10.5647 49.3514 12.6166 49.7782 14.699 49.8448C17.3728 49.964 18.2197 50 25 50C31.7803 50 32.6494 50 35.301 49.8448C37.3751 49.8032 39.4269 49.4124 41.3705 48.6833C44.7273 47.3833 47.3789 44.7333 48.6811 41.3849C49.4114 39.4445 49.8029 37.3988 49.8445 35.3227C49.9639 32.6561 50 31.8106 50 25.0388C49.9944 18.2698 49.9944 17.4105 49.839 14.7577ZM24.9806 37.7564C17.8893 37.7564 12.1446 32.0213 12.1446 24.9418C12.1446 17.8623 17.8893 12.1272 24.9806 12.1272C32.0663 12.1272 37.8165 17.8623 37.8165 24.9418C37.8165 32.0213 32.0663 37.7564 24.9806 37.7564ZM38.3274 14.6413C36.6698 14.6413 35.3343 13.3052 35.3343 11.6532C35.3343 10.0011 36.6698 8.66504 38.3274 8.66504C39.9795 8.66504 41.3177 10.0011 41.3177 11.6532C41.3177 13.3052 39.9795 14.6413 38.3274 14.6413Z" fill="#FFF7F7"/>
<path d="M24.9805 33.2659C29.5855 33.2659 33.3185 29.539 33.3185 24.9418C33.3185 20.3445 29.5855 16.6177 24.9805 16.6177C20.3756 16.6177 16.6426 20.3445 16.6426 24.9418C16.6426 29.539 20.3756 33.2659 24.9805 33.2659Z" fill="#FFF7F7"/>
</svg>
