<svg width="50" height="50" viewBox="0 0 50 50" fill="none" xmlns="http://www.w3.org/2000/svg">
<path d="M42.5 0H7.5C3.35786 0 0 3.35786 0 7.5V42.5C0 46.6421 3.35786 50 7.5 50H42.5C46.6421 50 50 46.6421 50 42.5V7.5C50 3.35786 46.6421 0 42.5 0Z" fill="#F9FDFD"/>
<path d="M38.3828 12.5H11.6172C9.40805 12.5 7.61719 14.2909 7.61719 16.5V33.5C7.61719 35.7091 9.40805 37.5 11.6172 37.5H38.3828C40.592 37.5 42.3828 35.7091 42.3828 33.5V16.5C42.3828 14.2909 40.592 12.5 38.3828 12.5Z" fill="#141313"/>
<path d="M42.3828 12.5L26.2695 28.5156C25.5859 29.2969 24.4141 29.2969 23.7305 28.5156L7.61719 12.5M7.61719 37.5L20.2148 25M42.3828 37.5L29.7852 25" stroke="#F7FBFB" stroke-width="5.85008"/>
</svg>
